# AST/ASF file generated using VICON BodyLanguage
# -----------------------------------------------
:version 1.10
:name VICON
:units
  mass 1.0
  length 0.45
  angle deg
:documentation
   .ast/.asf automatically generated from VICON data using
   VICON BodyBuilder and BodyLanguage model FoxedUp or BRILLIANT.MOD
:root
   order TX TY TZ RX RY RZ
   axis XYZ
   position 0 0 0  
   orientation 0 0 0 
:bonedata
  begin
     id 1 
     name lhipjoint
     direction 0.610259 -0.730986 0.305356 
     length 2.50941 
     axis 0 0 0  XYZ
  end
  begin
     id 2 
     name lfemur
     direction 0.34202 -0.939693 0  
     length 7.48822  
     axis 0 0 20  XYZ
    dof rx ry rz
    limits (-160.0 20.0)
           (-70.0 70.0)
           (-60.0 70.0)
  end
  begin
     id 3 
     name ltibia
     direction 0.34202 -0.939693 0   
     length 7.60141   
     axis 0 0 20   XYZ
    dof rx
    limits (-10.0 170.0)
  end
  begin
     id 4 
     name lfoot
     direction 0.0673488 -0.185039 0.980421   
     length 2.04049   
     axis -90 7.62852e-016 20   XYZ
    dof rx rz
    limits (-45.0 90.0)
           (-70.0 20.0)
  end
  begin
     id 5 
     name ltoes
     direction 1.5356e-011 -4.21729e-011 1   
     length 1.02897   
     axis -90 7.62852e-016 20   XYZ
    dof rx
    limits (-90.0 20.0)
  end
  begin
     id 6 
     name rhipjoint
     direction -0.57612 -0.754205 0.315056   
     length 2.43216  
     axis 0 0 0  XYZ 
  end
  begin
     id 7 
     name rfemur
     direction -0.34202 -0.939693 0   
     length 7.42799   
     axis 0 0 -20   XYZ
    dof rx ry rz
    limits (-160.0 20.0)
           (-70.0 70.0)
           (-70.0 60.0)
  end
  begin
     id 8 
     name rtibia
     direction -0.34202 -0.939693 0   
     length 7.69484   
     axis 0 0 -20   XYZ
    dof rx
    limits (-10.0 170.0)
 end
 begin
     id 9 
     name rfoot
     direction -0.111837 -0.30727 0.945028   
     length 2.15769  
     axis -90 -7.62852e-016 -20   XYZ
    dof rx rz
    limits (-45.0 90.0)
           (-20.0 70.0)
  end
  begin
     id 10 
     name rtoes
     direction -1.53539e-011 -4.21878e-011 1   
     length 1.07391   
     axis -90 -7.62852e-016 -20   XYZ
    dof rx
    limits (-90.0 20.0)
  end
  begin
     id 11 
     name lowerback
     direction 0.00552624 0.990109 -0.140195   
     length 2.12403   
     axis 0 0 0   XYZ
    dof rx ry rz
    limits (-20.0 45.0)
           (-30.0 30.0)
           (-30.0 30.0)
  end
  begin
     id 12 
     name upperback
     direction 0.00361898 0.999976 -0.00584723   
     length 2.13232   
     axis 0 0 0   XYZ
    dof rx ry rz
    limits (-20.0 45.0)
           (-30.0 30.0)
           (-30.0 30.0)
  end
  begin
     id 13 
     name thorax
     direction -0.000331275 0.998253 0.0590847   
     length 2.17688   
     axis 0 0 0   XYZ
    dof rx ry rz
    limits (-20.0 45.0)
           (-30.0 30.0)
           (-30.0 30.0)
  end
  begin
     id 14 
     name lowerneck
     direction -0.0561561 0.979832 0.19177   
     length 1.64159   
     axis 0 0 0   XYZ
    dof rx ry rz
    limits (-20.0 45.0)
           (-30.0 30.0)
           (-30.0 30.0)
  end
  begin
     id 15 
     name upperneck
     direction 0.0827153 0.979385 -0.184293   
     length 1.68939   
     axis 0 0 0   XYZ
    dof rx ry rz
    limits (-20.0 45.0)
           (-30.0 30.0)
           (-30.0 30.0)
  end
  begin
     id 16
     name head
     direction 0.0278583 0.995936 -0.0856488  
     length 1.70207  
     axis 0 0 0   XYZ
    dof rx ry rz
    limits (-20.0 45.0)
           (-30.0 30.0)
           (-30.0 30.0)
  end
  begin
     id 17 
     name lclavicle
     direction 0.950993 0.301131 -0.0702275  
     length 3.41652  
     axis 0 0 0   XYZ
    dof ry rz
    limits (-20.0 10.0)
           (0.0 20.0)
  end
  begin
     id 18 
     name lhumerus
     direction 1 -4.48981e-011 -3.9662e-029   
     length 5.32955   
     axis 180 -30 -90   XYZ
    dof rx ry rz
    limits (-60.0 90.0)
           (-90.0 90.0)
           (-90.0 90.0)
  end
  begin
     id 19
     name lradius
     direction 1 -4.48925e-011 -9.0549e-027   
     length 3.69232   
     axis 180 -30 -90   XYZ
    dof rx
    limits (-10.0 170.0)
  end
  begin
     id 20
     name lwrist
     direction 1 -4.49007e-011 -1.49005e-026   
     length 1.84616   
     axis 9.0955e-015 90 90   XYZ
    dof ry
    limits (-180.0 0.0)
 end
  begin
     id 21 
     name lhand
     direction 1 -4.49016e-011 -2.98023e-026   
     length 0.536598   
     axis 1.90115e-014 90 90   XYZ
    dof rx rz
    limits (-90.0 90.0)
           (-45.0 45.0)
  end
  begin
     id 22 
     name lfingers
     direction 1 -4.48924e-011 -5.9578e-026   
     length 0.432619   
     axis 3.80223e-014 90 90   XYZ
    dof rx
    limits (0.0 90.0)
  end
  begin
     id 23
     name lthumb
     direction 0.707107 -6.34947e-011 0.707107   
     length 0.621157   
     axis -90 45 -3.84942e-014   XYZ
    dof rx rz
    limits (-45.0 45.0)
           (-45.0 45.0)
  end
  begin
     id 24 
     name rclavicle
     direction -0.955495 0.276497 -0.102848   
     length 3.36357  
     axis 0 0 0   XYZ 
    dof ry rz
    limits (-10.0 20.0)
           (-20.0 0.0)
  end
  begin
     id 25 
     name rhumerus
     direction -1 -4.48961e-011 3.30983e-027  
     length 5.23431   
     axis 180 30 90   XYZ
    dof rx ry rz
    limits (-90.0 60.0)
           (-90.0 90.0)
           (-90.0 90.0)
  end
  begin
     id 26 
     name rradius
     direction -1 -4.48965e-011 -6.63263e-027   
     length 3.55301   
     axis 180 30 90   XYZ
    dof rx
    limits (-10.0 170.0)
  end
  begin
     id 27 
     name rwrist
     direction -1 -4.48942e-011 -1.48958e-026   
     length 1.77651   
     axis 9.0955e-015 -90 -90   XYZ
    dof ry
    limits (-180.0 0.0)
  end
  begin
     id 28
     name rhand
     direction -1 -4.48977e-011 -2.97966e-026   
     length 0.772522   
     axis 1.90115e-014 -90 -90   XYZ
    dof rx rz
    limits (-90.0 90.0)
           (-45.0 45.0)
  end
  begin
     id 29
     name rfingers
     direction -1 -4.49135e-011 -5.96389e-026   
     length 0.622827   
     axis 3.80223e-014 -90 -90   XYZ
    dof rx
    limits (0.0 90.0)
  end
  begin
     id 30
     name rthumb
     direction -0.707107 -6.34969e-011 0.707107   
     length 0.894259   
     axis -90 -45 3.84942e-014   XYZ
    dof rx rz
    limits (-45.0 45.0)
           (-45.0 45.0)
  end
:hierarchy
  begin
    root lhipjoint rhipjoint lowerback
    lhipjoint lfemur
    lfemur ltibia
    ltibia lfoot
    lfoot ltoes
    rhipjoint rfemur
    rfemur rtibia
    rtibia rfoot
    rfoot rtoes
    lowerback upperback
    upperback thorax
    thorax lowerneck lclavicle rclavicle
    lowerneck upperneck
    upperneck head
    lclavicle lhumerus
    lhumerus lradius
    lradius lwrist
    lwrist lhand lthumb
    lhand lfingers
    rclavicle rhumerus
    rhumerus rradius
    rradius rwrist
    rwrist rhand rthumb
    rhand rfingers
  end

#!OML:ASF F:\VICON\USERDATA\INSTALL\rory3\rory3.ASF
:FULLY-SPECIFIED
:DEGREES
33
root -14.0085 17.957 -9.42406 -2.3513 0.72327 -2.80936
lowerback 11.6336 1.48658 1.01248
upperback 1.06621 2.18316 1.36632
thorax -5.42214 1.0657 0.508445
lowerneck -20.5978 -5.75196 -11.9034
upperneck 28.1536 -6.97636 8.94729
head 13.7685 -3.13136 4.33545
rclavicle -3.59862e-014 -2.08724e-015
rhumerus -31.4825 -16.7016 -77.6921
rradius 26.2308
rwrist 9.22823
rhand -15.2575 8.71992
rfingers 7.12502
rthumb 10.9164 -20.9763
lclavicle -3.59862e-014 -2.08724e-015
lhumerus -32.1089 4.75056 84.8112
lradius 30.6824
lwrist -7.05647
lhand -17.9942 26.1288
lfingers 7.12502
lthumb 8.27589 55.9467
rfemur -3.21625 -3.96693 25.1095
rtibia 22.3652
rfoot -13.4323 3.01151
rtoes 4.73277
lfemur -15.9717 3.47467 -18.1011
ltibia 53.7987
lfoot -4.13611 -1.51408
ltoes -10.7456
34
root -14.0072 17.9416 -9.30988 -2.29544 0.887339 -2.89732
lowerback 11.5796 1.52215 1.15415
upperback 1.0966 2.24505 1.33385
thorax -5.35344 1.09309 0.386813
lowerneck -20.7815 -5.75155 -11.82
upperneck 28.1519 -6.9606 8.88394
head 13.798 -3.11878 4.29647
rclavicle -2.80783e-015 5.36719e-015
rhumerus -31.0645 -16.404 -77.8358
rradius 26.3583
rwrist 8.93573
rhand -15.4792 9.10567
rfingers 7.12502
rthumb 10.7025 -20.6017
lclavicle -2.80783e-015 5.36719e-015
lhumerus -32.2278 4.73905 84.8148
lradius 30.7765
lwrist -7.13112
lhand -17.7838 25.9844
lfingers 7.12502
lthumb 8.47894 55.7942
rfemur -2.97166 -4.01574 25.1936
rtibia 22.6152
rfoot -13.8714 2.65905
rtoes 4.54445
lfemur -16.779 3.9083 -18.0775
ltibia 52.8705
lfoot -4.87627 -0.87033
ltoes -11.0041
35
root -14.0014 17.9279 -9.19625 -2.21803 1.08618 -2.96514
lowerback 11.8262 1.54961 1.31221
upperback 0.897721 2.30772 1.26967
thorax -5.69161 1.11644 0.210669
lowerneck -20.7904 -5.72354 -11.8169
upperneck 28.2721 -6.95859 8.97823
head 13.855 -3.10555 4.34
rclavicle -1.51387e-014 -7.50412e-015
rhumerus -31.0453 -16.1399 -77.8902
rradius 26.6273
rwrist 8.71854
rhand -15.4574 9.5003
rfingers 7.12502
rthumb 10.7235 -20.206
lclavicle -1.51387e-014 -7.50412e-015
lhumerus -32.6431 4.73103 84.7597
lradius 30.8276
lwrist -7.18594
lhand -17.5101 26.0977
lfingers 7.12502
lthumb 8.74312 55.8966
rfemur -2.72443 -4.18855 25.2261
rtibia 22.7778
rfoot -14.2745 2.56249
rtoes 4.28918
lfemur -17.5624 4.2459 -18.1219
ltibia 51.8265
lfoot -5.81536 -0.0895929
ltoes -12.1642
36
root -13.9953 17.906 -9.08219 -2.13296 1.18204 -3.16599
lowerback 12.1674 1.61711 1.51232
upperback 0.64178 2.4397 1.29731
thorax -6.14548 1.17143 0.0908657
lowerneck -20.6682 -5.67343 -11.7175
upperneck 28.3167 -6.93611 8.9708
head 13.8397 -3.08879 4.32699
rclavicle 8.80554e-015 4.67144e-015
rhumerus -31.2061 -15.3574 -78.0182
rradius 27.2292
rwrist 8.01211
rhand -15.3919 9.32873
rfingers 7.12502
rthumb 10.7867 -20.3743
lclavicle 8.80554e-015 4.67144e-015
lhumerus -33.221 4.66362 84.822
lradius 31.012
lwrist -6.87086
lhand -17.3788 26.5434
lfingers 7.12502
lthumb 8.86986 56.3369
rfemur -2.4378 -4.25267 25.4121
rtibia 22.8343
rfoot -14.5772 2.75846
rtoes 4.6824
lfemur -18.2877 4.64817 -18.018
ltibia 50.7039
lfoot -6.5009 0.647558
ltoes -12.3992
37
root -13.9895 17.9005 -8.96965 -2.03644 1.25762 -3.28418
lowerback 12.3582 1.70206 1.67221
upperback 0.527531 2.58081 1.27596
thorax -6.36454 1.23285 -0.0537655
lowerneck -20.6737 -5.64918 -11.3897
upperneck 28.2257 -6.93631 8.74434
head 13.7762 -3.08146 4.17373
rclavicle -1.69743e-014 -4.67144e-015
rhumerus -31.0501 -14.8482 -78.1883
rradius 27.678
rwrist 7.67261
rhand -15.4429 8.91795
rfingers 7.12502
rthumb 10.7376 -20.7876
lclavicle -1.69743e-014 -4.67144e-015
lhumerus -33.5692 4.66701 84.8365
lradius 31.2035
lwrist -6.77463
lhand -17.2063 26.8493
lfingers 7.12502
lthumb 9.03629 56.6358
rfemur -2.11355 -4.12446 25.5541
rtibia 22.8078
rfoot -14.9182 2.57484
rtoes 4.3174
lfemur -18.9568 5.01913 -18.0059
ltibia 49.3951
lfoot -6.90155 1.40683
ltoes -12.3272
38
root -13.9824 17.8972 -8.8567 -1.95812 1.33413 -3.48492
lowerback 12.4504 1.75427 1.98544
upperback 0.490336 2.69471 1.23092
thorax -6.43801 1.27739 -0.300795
lowerneck -20.7336 -5.64318 -11.1687
upperneck 28.1091 -6.9337 8.57043
head 13.7207 -3.07653 4.06018
rclavicle -3.31846e-014 1.15544e-015
rhumerus -30.6549 -14.5988 -78.3773
rradius 27.882
rwrist 7.48257
rhand -15.4196 8.70293
rfingers 7.12502
rthumb 10.76 -21.0015
lclavicle -3.31846e-014 1.15544e-015
lhumerus -33.7501 4.75428 84.7409
lradius 31.2303
lwrist -7.04911
lhand -17.2563 26.8991
lfingers 7.12502
lthumb 8.98799 56.6877
rfemur -1.7309 -4.01541 25.7939
rtibia 22.7039
rfoot -15.2662 1.97003
rtoes 2.63052
lfemur -19.5574 5.36463 -17.9179
ltibia 47.9403
lfoot -7.12268 2.39897
ltoes -12.6985
39
root -13.9751 17.8952 -8.742 -1.78293 1.42064 -3.55027
lowerback 12.3873 1.80144 2.10967
upperback 0.474168 2.77028 1.18449
thorax -6.4103 1.31026 -0.430662
lowerneck -20.8635 -5.65824 -11.1599
upperneck 28.0315 -6.91629 8.50785
head 13.71 -3.07238 4.03246
rclavicle -9.339e-015 2.168e-015
rhumerus -30.3434 -14.019 -78.5969
rradius 28.2603
rwrist 6.93873
rhand -15.6603 8.74336
rfingers 7.12502
rthumb 10.5279 -20.973
lclavicle -9.339e-015 2.168e-015
lhumerus -33.8862 4.98211 84.6599
lradius 31.2261
lwrist -7.38161
lhand -17.1815 26.8767
lfingers 7.12502
lthumb 9.06017 56.6621
rfemur -1.39914 -4.00573 25.8612
rtibia 22.5152
rfoot -15.4543 1.62566
rtoes 2.18371
lfemur -20.1187 5.59699 -17.995
ltibia 46.2951
lfoot -7.23163 3.48157
ltoes -12.9726
40
root -13.968 17.8964 -8.62556 -1.55462 1.55111 -3.53472
lowerback 12.2978 1.84444 2.16713
upperback 0.387692 2.82766 1.07483
thorax -6.44228 1.33412 -0.586619
lowerneck -20.9159 -5.65742 -11.1922
upperneck 28.016 -6.93298 8.62238
head 13.7232 -3.06623 4.08098
rclavicle 1.03228e-014 -2.10712e-014
rhumerus -30.2088 -13.3733 -78.891
rradius 28.8323
rwrist 6.3932
rhand -15.8478 8.49275
rfingers 7.12502
rthumb 10.3469 -21.2327
lclavicle 1.03228e-014 -2.10712e-014
lhumerus -34.1555 5.04987 84.5498
lradius 31.2611
lwrist -7.49638
lhand -17.3477 26.526
lfingers 7.12502
lthumb 8.89981 56.3183
rfemur -1.12334 -3.95659 25.8555
rtibia 22.3161
rfoot -15.7038 1.39443
rtoes 3.13321
lfemur -20.6684 5.70243 -18.1647
ltibia 44.5304
lfoot -7.36231 4.54039
ltoes -12.1338
41
root -13.9599 17.8983 -8.50802 -1.38244 1.6308 -3.50385
lowerback 12.2698 1.91208 2.18948
upperback 0.307467 2.91474 0.96997
thorax -6.50301 1.37306 -0.72513
lowerneck -20.9487 -5.65506 -11.2741
upperneck 27.9961 -6.95021 8.7945
head 13.7355 -3.05849 4.1617
rclavicle 4.41053e-015 -5.51627e-015
rhumerus -29.8105 -12.9581 -79.1462
rradius 29.0692
rwrist 6.11632
rhand -15.9425 8.37818
rfingers 7.12502
rthumb 10.2556 -21.3518
lclavicle 4.41053e-015 -5.51627e-015
lhumerus -34.3947 5.18444 84.4464
lradius 31.2065
lwrist -7.57857
lhand -17.6544 26.4444
lfingers 7.12502
lthumb 8.60389 56.2491
rfemur -0.807704 -3.90977 25.8372
rtibia 22.1273
rfoot -15.9436 1.10743
rtoes 3.21093
lfemur -21.1089 5.82054 -18.3374
ltibia 42.6675
lfoot -7.38698 5.46637
ltoes -11.6936
42
root -13.95 17.8961 -8.39511 -1.24099 1.7215 -3.60423
lowerback 12.2961 1.96046 2.31577
upperback 0.271022 2.99623 0.93646
thorax -6.54621 1.40748 -0.847206
lowerneck -21.0214 -5.69441 -11.3444
upperneck 27.9242 -6.99285 8.87126
head 13.7328 -3.07191 4.19407
rclavicle 1.06163e-014 3.37934e-015
rhumerus -29.4415 -12.5969 -79.2684
rradius 29.2339
rwrist 5.85033
rhand -15.951 9.55369
rfingers 7.12502
rthumb 10.2474 -20.1767
lclavicle 1.06163e-014 3.37934e-015
lhumerus -34.4986 5.31424 84.3895
lradius 31.0111
lwrist -7.72455
lhand -17.9631 26.4424
lfingers 7.12502
lthumb 8.30598 56.2591
rfemur -0.437896 -3.80033 25.9753
rtibia 21.8965
rfoot -15.9356 0.862035
rtoes 3.10533
lfemur -21.5092 5.95528 -18.3587
ltibia 40.706
lfoot -7.20556 6.31017
ltoes -11.6406
43
root -13.9377 17.8923 -8.28112 -1.06505 1.85517 -3.73684
lowerback 12.2107 1.98553 2.51272
upperback 0.266849 3.05213 0.900796
thorax -6.48896 1.42912 -1.00135
lowerneck -21.0916 -5.68218 -11.2663
upperneck 27.7472 -6.956 8.7943
head 13.6605 -3.05451 4.14921
rclavicle 2.51711e-014 -1.10325e-014
rhumerus -29.1777 -12.1138 -79.4177
rradius 29.5435
rwrist 5.25457
rhand -16.1154 10.7691
rfingers 7.12502
rthumb 10.0888 -18.9691
lclavicle 2.51711e-014 -1.10325e-014
lhumerus -34.5025 5.55224 84.2721
lradius 30.716
lwrist -7.94024
lhand -18.1106 26.1755
lfingers 7.12502
lthumb 8.16361 55.9978
rfemur -0.0434506 -3.77129 26.1226
rtibia 21.5695
rfoot -15.7584 0.77214
rtoes 3.87848
lfemur -21.9125 6.04881 -18.3623
ltibia 38.692
lfoot -7.23575 7.05123
ltoes -9.72528
44
root -13.9208 17.8865 -8.15977 -0.9133 2.03635 -3.80781
lowerback 12.0928 2.00035 2.70844
upperback 0.25703 3.09046 0.828523
thorax -6.41755 1.44203 -1.18875
lowerneck -21.2349 -5.69695 -11.2286
upperneck 27.6932 -6.95915 8.76168
head 13.6652 -3.05201 4.12569
rclavicle -2.65999e-014 -9.14409e-015
rhumerus -28.9118 -11.7849 -79.5336
rradius 29.9457
rwrist 4.94346
rhand -15.9087 10.7392
rfingers 7.12502
rthumb 10.2883 -18.9892
lclavicle -2.65999e-014 -9.14409e-015
lhumerus -34.5847 5.88486 84.1082
lradius 30.5018
lwrist -8.12042
lhand -17.9649 25.6441
lfingers 7.12502
lthumb 8.30425 55.4609
rfemur 0.438614 -3.82703 26.1692
rtibia 21.1937
rfoot -15.5828 0.635221
rtoes 3.64443
lfemur -22.2003 6.00757 -18.4441
ltibia 36.6221
lfoot -7.1272 7.65566
ltoes -7.99344
45
root -13.902 17.8787 -8.03997 -0.856499 2.25016 -4.0854
lowerback 12.0043 2.01703 3.06894
upperback 0.305717 3.15968 0.857908
thorax -6.29617 1.46828 -1.36641
lowerneck -21.3417 -5.788 -11.3546
upperneck 27.6853 -7.06936 8.87568
head 13.7101 -3.09521 4.17183
rclavicle -1.14177e-014 -5.66536e-015
rhumerus -28.6514 -11.4736 -79.5724
rradius 30.6758
rwrist 5.32449
rhand -15.2977 9.13129
rfingers 7.12502
rthumb 10.8776 -20.567
lclavicle -1.14177e-014 -5.66536e-015
lhumerus -34.5615 6.31216 84.019
lradius 30.2151
lwrist -8.26784
lhand -17.6472 25.5704
lfingers 7.12502
lthumb 8.61084 55.3748
rfemur 1.00171 -3.98703 26.4331
rtibia 20.7819
rfoot -15.5251 0.407303
rtoes 2.76809
lfemur -22.3834 5.93276 -18.2826
ltibia 34.5079
lfoot -6.80531 8.08601
ltoes -7.53114
46
root -13.885 17.8722 -7.92621 -0.746185 2.40721 -4.22436
lowerback 11.4707 2.08892 3.05632
upperback 0.659547 3.23253 1.03419
thorax -5.63074 1.52381 -1.15383
lowerneck -21.564 -5.90244 -11.6816
upperneck 27.4046 -7.11191 9.01331
head 13.666 -3.12266 4.26418
rclavicle 2.5842e-014 3.47873e-014
rhumerus -27.7243 -11.1465 -79.4573
rradius 30.7581
rwrist 4.9934
rhand -15.5607 9.53983
rfingers 7.12502
rthumb 10.6239 -20.1716
lclavicle 2.5842e-014 3.47873e-014
lhumerus -34.011 7.02133 84.2027
lradius 29.7705
lwrist -8.52737
lhand -17.3889 26.0239
lfingers 7.12502
lthumb 8.86009 55.8179
rfemur 1.48273 -4.03512 26.5684
rtibia 20.3634
rfoot -15.4747 0.153563
rtoes 2.31313
lfemur -22.5784 5.82016 -18.2432
ltibia 32.3338
lfoot -6.41087 8.39643
ltoes -7.03973
